<?xml version="1.0" encoding="UTF-8" standalone="no"?>
<!-- Created with Inkscape (http://www.inkscape.org/) -->

<svg
   xmlns:dc="http://purl.org/dc/elements/1.1/"
   xmlns:cc="http://creativecommons.org/ns#"
   xmlns:rdf="http://www.w3.org/1999/02/22-rdf-syntax-ns#"
   xmlns:svg="http://www.w3.org/2000/svg"
   xmlns="http://www.w3.org/2000/svg"
   xmlns:sodipodi="http://sodipodi.sourceforge.net/DTD/sodipodi-0.dtd"
   xmlns:inkscape="http://www.inkscape.org/namespaces/inkscape"
   width="32"
   height="32"
   id="svg2"
   version="1.1"
   inkscape:version="0.91 r13725"
   sodipodi:docname="dienteSinFondo32x32.svg">
  <defs
     id="defs4" />
  <sodipodi:namedview
     id="base"
     pagecolor="#ffffff"
     bordercolor="#666666"
     borderopacity="1.0"
     inkscape:pageopacity="0.0"
     inkscape:pageshadow="2"
     inkscape:zoom="16.000001"
     inkscape:cx="18.812065"
     inkscape:cy="16.733939"
     inkscape:document-units="px"
     inkscape:current-layer="layer1"
     showgrid="false"
     inkscape:window-width="1366"
     inkscape:window-height="705"
     inkscape:window-x="-8"
     inkscape:window-y="-8"
     inkscape:window-maximized="1" />
  <metadata
     id="metadata7">
    <rdf:RDF>
      <cc:Work
         rdf:about="">
        <dc:format>image/svg+xml</dc:format>
        <dc:type
           rdf:resource="http://purl.org/dc/dcmitype/StillImage" />
        <dc:title></dc:title>
      </cc:Work>
    </rdf:RDF>
  </metadata>
  <g
     inkscape:label="Capa 1"
     inkscape:groupmode="layer"
     id="layer1"
     transform="translate(0,-1020.3622)">
    <g
       id="g5957"
       transform="matrix(0.66419738,0,0,0.68831795,-0.10810429,328.38574)">
      <path
         transform="matrix(1.1655681,0,0,1,-2.9158258,1004.0086)"
         sodipodi:open="true"
         sodipodi:end="3.151808"
         sodipodi:start="3.1518543"
         d="M 3.1422454,24.286057 A 20.162388,22.589285 0 0 1 23.510234,1.9297584 20.162388,22.589285 0 0 1 43.464903,24.749133 20.162388,22.589285 0 0 1 23.097376,47.10596 20.162388,22.589285 0 0 1 3.1422358,24.287103"
         sodipodi:ry="22.589285"
         sodipodi:rx="20.162388"
         sodipodi:cy="24.517857"
         sodipodi:cx="23.303572"
         id="path2985"
         style="fill:#ffffff;fill-opacity:1;stroke:#000000;stroke-width:0.90309989;stroke-miterlimit:4;stroke-dasharray:none"
         sodipodi:type="arc" />
      <path
         sodipodi:open="true"
         sodipodi:end="3.151808"
         sodipodi:start="3.1518543"
         transform="matrix(0.5273995,0,0,0.44213206,12.370057,1017.1269)"
         d="M 3.1422454,24.286057 A 20.162388,22.589285 0 0 1 23.510234,1.9297584 20.162388,22.589285 0 0 1 43.464903,24.749133 20.162388,22.589285 0 0 1 23.097376,47.10596 20.162388,22.589285 0 0 1 3.1422358,24.287103"
         sodipodi:ry="22.589285"
         sodipodi:rx="20.162388"
         sodipodi:cy="24.517857"
         sodipodi:cx="23.303572"
         id="path2985-5"
         style="fill:#ffffff;fill-opacity:1;stroke:#000000;stroke-width:2.20000005;stroke-miterlimit:4;stroke-dasharray:none"
         sodipodi:type="arc" />
      <path
         transform="translate(0,1004.3622)"
         inkscape:connector-curvature="0"
         id="path3013"
         d="m 8.3125,7.7500001 9.5,7.9374999 0,0"
         style="fill:none;stroke:#000000;stroke-width:1px;stroke-linecap:butt;stroke-linejoin:miter;stroke-opacity:1" />
      <path
         sodipodi:nodetypes="cccc"
         inkscape:connector-curvature="0"
         id="path3013-7"
         d="m 7.0642395,1043.8107 6.1077025,-5.9609 3.233489,-3.1557 0,0"
         style="fill:none;stroke:#000000;stroke-width:1.05438411px;stroke-linecap:butt;stroke-linejoin:miter;stroke-opacity:1" />
      <path
         inkscape:connector-curvature="0"
         id="path3013-1"
         d="m 40.04815,1011.295 -9.2213,8.2595 0,0"
         style="fill:none;stroke:#000000;stroke-width:1px;stroke-linecap:butt;stroke-linejoin:miter;stroke-opacity:1" />
      <path
         inkscape:connector-curvature="0"
         id="path3013-15"
         d="m 32.600821,1034.3068 9.33497,9.3635 0,0"
         style="fill:none;stroke:#000000;stroke-width:1.0766412px;stroke-linecap:butt;stroke-linejoin:miter;stroke-opacity:1" />
    </g>
  </g>
</svg>
